<svg class="svg-icon" style="width: 1rem; height: 1rem;vertical-align: center;fill: currentColor;overflow: hidden;" viewBox="0 0 1024 1024" version="1.1" xmlns="http://www.w3.org/2000/svg"><path d="M886.51776 799.66208l-139.93984-139.93984a60.928 60.928 0 0 0-37.60128-17.44896 305.43872 305.43872 0 0 0 67.54304-191.6928c0-169.39008-137.80992-307.2-307.2-307.2s-307.2 137.80992-307.2 307.2 137.80992 307.2 307.2 307.2c63.91808 0 123.31008-19.6608 172.52352-53.18656 0.34816 15.23712 6.22592 30.37184 17.85856 42.00448l139.93984 139.93984c11.9808 12.00128 27.72992 18.00192 43.43808 18.00192s31.45728-6.00064 43.43808-18.00192a61.39904 61.39904 0 0 0 0-86.87616z m-417.19808-144.2816c-112.92672 0-204.8-91.87328-204.8-204.8s91.87328-204.8 204.8-204.8 204.8 91.87328 204.8 204.8-91.87328 204.8-204.8 204.8z"  /></svg>