<svg width="23" height="22" viewBox="0 0 23 22" fill="none" xmlns="http://www.w3.org/2000/svg">
<path fill-rule="evenodd" clip-rule="evenodd" d="M20.3149 21.9918H1.68522C0.748046 21.9918 -0.0116577 21.3039 -0.0116577 20.3685V1.70241C-0.0116577 0.766929 0.748046 0.00854492 1.68522 0.00854492H20.3149C21.2521 0.00854492 22.0118 0.766929 22.0118 1.70241V20.3685C22.0118 21.3039 21.2521 21.9918 20.3149 21.9918ZM8.85062 4.24999C7.84525 4.24999 7.40899 4.41048 6.75169 4.7308C6.09438 5.05064 5.62014 5.61758 5.37524 6.1271C5.1304 6.63677 5.00799 7.2566 5.00799 8.29095V9.29903H2.99V11.9716H5.00799V20.0037H7.99152V11.9716H10.7097L11.3182 9.29903H7.99152V8.34837C7.99152 7.7237 8.10526 7.30097 8.33299 7.08146C8.56064 6.86146 9.53421 6.72983 10.0584 6.72983C10.5911 6.72983 11.0184 6.97693 11.5561 7.29063L12.1981 4.86936C11.2098 4.59112 9.88159 4.24999 8.85062 4.24999Z" fill="white"/>
</svg>
