<svg width="22" height="22" viewBox="0 0 22 22" fill="none" xmlns="http://www.w3.org/2000/svg">
<path fill-rule="evenodd" clip-rule="evenodd" d="M19.2817 21.9896H2.71832C1.22287 21.9896 0.01056 20.7767 0.01056 19.2818V2.71799C0.01056 1.22283 1.22287 0.010406 2.71832 0.010406H19.2817C20.7772 0.010406 21.9895 1.22283 21.9895 2.71799V19.2818C21.9895 20.7767 20.7772 21.9896 19.2817 21.9896ZM11 6.99525C9.38894 6.99525 8.00391 7.94895 7.36846 9.32089H7.36487C7.35819 9.33491 7.35368 9.35057 7.34719 9.36525C7.30913 9.44992 7.27549 9.53669 7.24328 9.62443C7.22792 9.66621 7.2114 9.70765 7.1973 9.74992C7.16784 9.8391 7.14364 9.93186 7.12045 10.0243C7.10952 10.0672 7.09667 10.1094 7.08717 10.1538C7.06614 10.2511 7.05144 10.3509 7.03776 10.4509C7.03217 10.4909 7.02365 10.5302 7.01932 10.5715C7.00429 10.7127 6.99569 10.8548 6.99569 10.9999C6.99569 13.2119 8.78847 15.0043 11 15.0043C13.2115 15.0043 15.0043 13.2119 15.0043 10.9999C15.0043 10.8548 14.9957 10.7127 14.9808 10.5715C14.9764 10.5302 14.9679 10.4909 14.9623 10.4509C14.9486 10.3509 14.9339 10.2511 14.9129 10.1538C14.9034 10.1094 14.8905 10.0672 14.8796 10.0243C14.8564 9.93186 14.8322 9.8391 14.8027 9.74992C14.7887 9.70765 14.7721 9.66621 14.7567 9.62443C14.7245 9.53669 14.6909 9.44992 14.6528 9.36525C14.6464 9.35057 14.6418 9.33491 14.6352 9.32089H14.6316C13.9961 7.94895 12.6111 6.99525 11 6.99525ZM19.0093 4.07862C19.0093 3.48009 18.5243 2.99508 17.9262 2.99508H17.0533C16.4551 2.99508 15.9702 3.48009 15.9702 4.07862V4.91557C15.9702 5.51346 16.4551 5.99848 17.0533 5.99848H17.9262C18.5243 5.99848 19.0093 5.51346 19.0093 4.91557V4.07862ZM19.978 9.01138H16.7098C16.8637 9.57233 17.0522 10.4433 17.0522 11.0528C17.0522 14.7169 13.9745 17.0472 11 17.0472C7.95601 17.0472 4.95268 14.7169 4.95268 11.0528C4.95268 10.4433 5.16756 9.57233 5.32151 9.01138L2.02679 8.97992V18.8946C2.02679 19.493 2.51178 19.9775 3.10994 19.9775H18.8949C19.4931 19.9775 19.978 19.493 19.978 18.8946V9.01138Z" fill="white"/>
</svg>
