<svg width="22" height="22" viewBox="0 0 22 22" fill="none" xmlns="http://www.w3.org/2000/svg">
<path fill-rule="evenodd" clip-rule="evenodd" d="M10.9999 0.01089C4.93128 0.01089 0.01078 4.93088 0.01078 10.9999C0.01078 15.5233 2.74465 19.4078 6.64904 21.0954C6.62083 20.3293 6.64829 19.4151 6.84213 18.5873C7.05542 17.6931 8.2628 12.5772 8.2628 12.5772C8.2628 12.5772 7.90999 11.8727 7.90999 10.8319C7.90999 9.1991 8.85845 7.97718 10.0368 7.97718C11.0402 7.97718 11.5252 8.73202 11.5252 9.63378C11.5252 10.6419 10.882 12.1501 10.55 13.5467C10.2749 14.7169 11.1389 15.6717 12.2926 15.6717C14.3805 15.6717 15.787 12.9881 15.787 9.80685C15.787 7.39088 14.1612 5.58056 11.1992 5.58056C7.85492 5.58056 5.76833 8.07541 5.76833 10.8631C5.76833 11.8236 6.05273 12.5025 6.49741 13.0257C6.70127 13.2665 6.72881 13.3638 6.65438 13.6417C6.60073 13.8435 6.48197 14.3323 6.431 14.5272C6.35789 14.8062 6.1305 14.9044 5.87831 14.8015C4.33831 14.1738 3.61926 12.4862 3.61926 10.5893C3.61926 7.45556 6.26201 3.69864 11.5018 3.69864C15.7139 3.69864 18.4848 6.74703 18.4848 10.0161C18.4848 14.3449 16.0788 17.576 12.534 17.576C11.3428 17.576 10.222 16.9315 9.84036 16.2026C9.84036 16.2026 9.19783 18.7404 9.06365 19.2331C8.83225 20.0712 8.38622 20.9077 7.973 21.5673C8.93347 21.8417 9.94902 21.9891 10.9999 21.9891C17.0688 21.9891 21.9893 17.0686 21.9893 10.9999C21.9893 4.93088 17.0688 0.01089 10.9999 0.01089Z" fill="white"/>
</svg>
