<svg width="24" height="21" viewBox="0 0 24 21" fill="none" xmlns="http://www.w3.org/2000/svg">
<path fill-rule="evenodd" clip-rule="evenodd" d="M16.3201 0.00718C18.2255 -0.02734 19.2396 0.68606 20.2083 1.59332C21.0304 1.52074 22.0989 1.0488 22.7284 0.7204C22.9323 0.60558 23.1363 0.49122 23.3403 0.37606C22.9809 1.37428 22.4934 2.15556 21.7443 2.7488C21.578 2.88056 21.4127 3.05814 21.2043 3.14186C21.2043 3.1459 21.2043 3.15008 21.2043 3.15444C22.2717 3.14282 23.1521 2.64848 23.9883 2.37992C23.9883 2.38396 23.9883 2.38814 23.9883 2.3925C23.5492 3.10976 22.9546 3.8375 22.3203 4.35928C22.0643 4.56846 21.8082 4.77702 21.5523 4.98588C21.5663 6.14766 21.5356 7.25572 21.3243 8.23218C20.0958 13.9056 16.8408 17.7572 11.688 19.4075C9.83779 20.0002 6.84773 20.2433 4.72786 19.7023C3.67661 19.4338 2.72698 19.1317 1.83578 18.7314C1.34076 18.5088 0.882312 18.2685 0.443712 17.9933C0.299784 17.9036 0.155736 17.8131 0.011712 17.7227C0.489864 17.7373 1.04928 17.8731 1.58376 17.7844C2.06743 17.7043 2.54172 17.7247 2.98776 17.6244C4.10059 17.3739 5.0886 17.0417 5.93983 16.5307C6.35249 16.2825 6.97867 15.9912 7.2719 15.6333C6.7193 15.6433 6.21838 15.5115 5.8079 15.3627C4.21658 14.7851 3.29042 13.7241 2.68786 12.1289C3.16992 12.1831 4.55897 12.3127 4.88383 12.0304C4.27675 11.9964 3.69305 11.6354 3.27581 11.3665C1.99582 10.5436 0.951912 9.16394 0.959832 7.03944C1.12774 7.12104 1.29578 7.20346 1.46376 7.28508C1.78529 7.4246 2.11224 7.49928 2.49576 7.58024C2.65781 7.61428 2.98174 7.71234 3.16783 7.64202C3.15982 7.64202 3.1518 7.64202 3.14381 7.64202C2.89613 7.34524 2.49266 7.14798 2.24374 6.83024C1.42255 5.78138 0.65292 4.16702 1.13983 2.2446C1.26324 1.75686 1.4591 1.32622 1.66778 0.92912C1.67573 0.93316 1.68374 0.93734 1.69174 0.94154C1.78728 1.1475 2.00057 1.29848 2.13576 1.47008C2.55516 2.00396 3.07262 2.48476 3.59983 2.90798C5.39611 4.35218 7.01378 5.23912 9.61198 5.89588C10.271 6.0625 11.0328 6.19024 11.8201 6.1912C11.5988 5.52912 11.67 4.4588 11.844 3.81798C12.2819 2.20832 13.2328 1.04702 14.6281 0.42524C14.9617 0.27622 15.3318 0.16766 15.7201 0.08074C15.9201 0.05558 16.1202 0.0317 16.3201 0.00718Z" fill="white"/>
</svg>
